<svg xmlns="http://www.w3.org/2000/svg" viewBox="0 0 689.6 648.4"><defs><style>.a{fill:#02bcd9;}</style></defs><path class="a" d="M689.6,108.26v0s0,0,0,0a.45.45,0,0,0-.12-.21,0,0,0,0,0,0,0,0,0,0,0,1,0,0,.58.58,0,0,0-.25-.12H565.05L502.8.25s0,0,0,0l-.06-.06L502.67.1l-.07,0-.07,0,0,0h0a.59.59,0,0,0-.23,0l-.05,0a.05.05,0,0,1,0,0,.49.49,0,0,0-.2.18s0,0,0,0l-60.4,105a3.23,3.23,0,0,0-4.42,2.53H321a5.08,5.08,0,1,0-9.65,2.64L129.41,215.51l0,0-.07.05h0l0,0-.05.07,0,.08s0,0,0,0a.06.06,0,0,0,0,0v0a.13.13,0,0,0,0,.06s0,.05,0,.08a.11.11,0,0,0,0,.05s0,0,0,0l0,.07s0,0,0,0L191.41,324l-.12.21L9.47,429.17a5.11,5.11,0,1,0-1.94,7l60,104,.11.11L5.72,647.65s0,0,0,0a.49.49,0,0,0,0,.27v0a.09.09,0,0,0,0,0,.41.41,0,0,0,.12.2s0,0,0,0l0,0a.41.41,0,0,0,.11.07l0,0a.58.58,0,0,0,.18,0H130.82a.5.5,0,0,0,.43-.25L193.44,540.4H310.92a5.09,5.09,0,1,0,8-5l9.92-17.19,49.6-86H502.8l.09-.05h0a.49.49,0,0,0,.16-.16v0l62-107.9a.48.48,0,0,0,0-.49L505.38,220.33a5.09,5.09,0,0,0,2.18-3.72H626.91a.47.47,0,0,0,.43-.25l62.2-107.8s0,0,0,0A.54.54,0,0,0,689.6,108.26Zm-311.19,323L318.89,328.06a5.15,5.15,0,0,0,1.16-1.17l180.6,104.34Zm-248.88,1.22.76.44,61,105.69L9.77,433.74a4.63,4.63,0,0,0,.34-1.29Zm181.36-108a5,5,0,0,0,.59,1.91L132,430,193,324.45ZM440.32,111.57a3,3,0,0,0,1.13-.22l14.22,24.56L499.56,212a5.2,5.2,0,0,0-1.17,1.17L320.56,110.4a5.24,5.24,0,0,0,.41-1.59H437.11A3.25,3.25,0,0,0,440.32,111.57ZM321,323.43a5.23,5.23,0,0,0-.41-1.6l88.91-51.38,88.92-51.37a5.26,5.26,0,0,0,1.07,1.09l-44,76.45L440,323.43ZM315.43,534.5a5.14,5.14,0,0,0-1.19.25L255,432.05l22.19-38.65,37.3-64.62a5.15,5.15,0,0,0,1,.19ZM320.06,321a5.41,5.41,0,0,0-1.17-1.17l59.52-103.17H497.47a5,5,0,0,0,.42,1.59L409,269.59Zm136.08-23.45,44.28-76.76a5.36,5.36,0,0,0,1.45.4l.15,102.6V429.61l-45.71-79L440.92,324Zm41.33-81.89H378.41L318.89,112.44a5.15,5.15,0,0,0,1.16-1.17L497.89,214A5,5,0,0,0,497.47,215.62Zm-119.92.5L318,319.29a5.08,5.08,0,0,0-1.36-.39V113.33a5.08,5.08,0,0,0,1.36-.39ZM312,327.19a5.32,5.32,0,0,0,1.33,1.12l-37.1,64.62L254,431.45H131.53Zm2.22-214.09a5,5,0,0,0,1.4.27V318.85a5.46,5.46,0,0,0-1.23.23L255,216.05l22.19-38.65Zm-60.6,103.35a.42.42,0,0,0,.07.24l59.2,103.13a5,5,0,0,0-.91.87L131.53,216.45Zm0,216a.42.42,0,0,0,.07.24l59,102.87a4.89,4.89,0,0,0-1,1L131.53,432.45Zm67.31-108H440l15.3,26.43,45.87,79.51L320.56,326A5.24,5.24,0,0,0,321,324.43ZM313.2,112.6l-36.93,64.33L254,215.45H131.53l180.3-104.14A5.25,5.25,0,0,0,313.2,112.6Zm-120,426.8h-.23L132,433.89,311.3,537.43a5.17,5.17,0,0,0-.45,2ZM318,534.91a5.08,5.08,0,0,0-1.36-.39V329a5.08,5.08,0,0,0,1.36-.39l59.53,103.17ZM506.65,213.15a5.26,5.26,0,0,0-1.07-1.09l44-76.55L565,108.81H687.24Zm57.49-104.93-15.37,26.72-44.16,76.54a5.36,5.36,0,0,0-1.45-.4L502.87,2.36ZM501.87,2.36l.29,208.69a5.23,5.23,0,0,0-1.63.37l-44-76-14.17-24.56a3.23,3.23,0,0,0,0-5ZM311.46,321.52a5.17,5.17,0,0,0-.58,1.93H192.28L131,217.31Zm-121.17,4.37L129.37,431.45H10.16a5.12,5.12,0,0,0-.27-1.37ZM8.36,435.62a5.19,5.19,0,0,0,.93-1L190.71,539.4H68.48a.41.41,0,0,0-.18.05h0ZM68.74,540.45H191.2L7.52,646.53ZM130.53,647.4H8L191.78,541.26ZM564.14,323.84l-61,106L503,323.41V221.16a5.17,5.17,0,0,0,1.48-.35Zm62.48-108.23H507.56a5.24,5.24,0,0,0-.41-1.59L687.74,109.67Z"/></svg>
