<svg xmlns="http://www.w3.org/2000/svg" width="32" height="32" viewBox="0 0 32 32"><defs><style>.a{fill:#658d1b;}</style></defs><path class="a" d="M16,2A11.63,11.63,0,0,0,4.38,13.58a10,10,0,0,0,0,1.09v.17C5,20.07,8.65,24.32,11.59,27c.87.77,1.68,1.41,2.32,1.89.86.63,1.43,1,1.52,1A1.19,1.19,0,0,0,16,30a1,1,0,0,0,.54-.16c.1-.05.66-.42,1.5-1,.65-.48,1.44-1.12,2.31-1.9,3-2.62,6.6-6.85,7.16-12l0-.1s0-.09,0-.14c0-.39,0-.74,0-1.14A11.63,11.63,0,0,0,16,2ZM16,17.8a4.22,4.22,0,1,1,4.2-4.22A4.23,4.23,0,0,1,16,17.8Z"/></svg>
